<svg xmlns="http://www.w3.org/2000/svg" viewBox="0 0 1440 780" role="img" aria-labelledby="title desc">
  <title id="title">Textura serena Emma Spa</title>
  <desc id="desc">Fondo abstracto de lino, pétalos y luz suave para una sección de bienestar.</desc>
  <defs>
    <linearGradient id="base" x1="0" x2="1" y1="0" y2="1">
      <stop offset="0" stop-color="#2c1a1d"/>
      <stop offset=".62" stop-color="#4a3438"/>
      <stop offset="1" stop-color="#e48da1"/>
    </linearGradient>
    <linearGradient id="veil" x1="0" x2="1">
      <stop offset="0" stop-color="#f7efe6" stop-opacity=".12"/>
      <stop offset=".5" stop-color="#f6d6dc" stop-opacity=".28"/>
      <stop offset="1" stop-color="#fdfaf7" stop-opacity=".08"/>
    </linearGradient>
    <filter id="blur">
      <feGaussianBlur stdDeviation="9"/>
    </filter>
  </defs>
  <rect width="1440" height="780" fill="url(#base)"/>
  <path d="M-20 602c170-72 355-86 555-41 268 60 489 17 663-130 88-74 181-99 262-74v423H-20Z" fill="url(#veil)"/>
  <g fill="none" stroke="#f7efe6" stroke-width="1.2" opacity=".16">
    <path d="M68 170c191-83 370-94 539-34 216 76 456 45 721-92"/>
    <path d="M16 347c194-35 378-21 552 42 199 72 432 72 698 0"/>
    <path d="M175 613c227-49 432-40 615 28 176 65 356 56 540-29"/>
  </g>
  <g transform="translate(987 196)" fill="#f6d6dc" opacity=".34" filter="url(#blur)">
    <path d="M111 0c48 47 60 108 36 184C93 141 79 86 111 0Z"/>
    <path d="M42 80c58 8 101 48 126 119-79-9-121-49-126-119Z"/>
    <path d="M185 80c-58 8-101 48-126 119 79-9 121-49 126-119Z"/>
  </g>
  <g transform="translate(168 486)" fill="#e48da1" opacity=".32">
    <ellipse cx="0" cy="0" rx="105" ry="28" transform="rotate(-14)"/>
    <ellipse cx="174" cy="42" rx="142" ry="34" transform="rotate(10)"/>
    <ellipse cx="297" cy="-15" rx="94" ry="25" transform="rotate(-23)"/>
  </g>
</svg>
