<svg xmlns="http://www.w3.org/2000/svg" viewBox="0 0 1000 760" role="img" aria-labelledby="title desc">
  <title id="title">Detalle de armonía</title>
  <desc id="desc">Piedras suaves, pétalos y líneas tranquilas en una composición minimalista.</desc>
  <defs>
    <linearGradient id="paper" x1="0" x2="1" y1="0" y2="1">
      <stop offset="0" stop-color="#fdfaf7"/>
      <stop offset=".7" stop-color="#f7efe6"/>
      <stop offset="1" stop-color="#f6d6dc"/>
    </linearGradient>
    <linearGradient id="stone" x1="0" x2="1" y1="0" y2="1">
      <stop offset="0" stop-color="#cfc4b9"/>
      <stop offset="1" stop-color="#7d756e"/>
    </linearGradient>
    <filter id="shadow" x="-20%" y="-20%" width="140%" height="140%">
      <feDropShadow dx="0" dy="20" stdDeviation="22" flood-color="#2c1a1d" flood-opacity=".13"/>
    </filter>
  </defs>
  <rect width="1000" height="760" fill="url(#paper)"/>
  <g opacity=".5" fill="none" stroke="#e8d5ba" stroke-width="2">
    <path d="M76 168c208-74 388-74 540 0s253 71 303-9"/>
    <path d="M43 582c144-58 276-63 397-15 148 59 312 42 493-50"/>
    <path d="M164 357c196 30 405 13 626-52"/>
  </g>
  <g transform="translate(240 292)" filter="url(#shadow)">
    <ellipse cx="252" cy="210" rx="224" ry="62" fill="#e8d5ba" opacity=".55"/>
    <ellipse cx="247" cy="155" rx="188" ry="75" fill="url(#stone)"/>
    <ellipse cx="219" cy="88" rx="146" ry="56" fill="#afa59b"/>
    <ellipse cx="265" cy="34" rx="101" ry="39" fill="#d1c8bd"/>
  </g>
  <g transform="translate(578 166)" fill="#e48da1" opacity=".82">
    <path d="M55 0c28 28 36 64 22 108C48 83 40 51 55 0Z"/>
    <path d="M19 45c31 3 55 24 71 64-45-5-69-27-71-64Z" opacity=".88"/>
    <path d="M92 45c-31 3-55 24-71 64 45-5 69-27 71-64Z" opacity=".88"/>
  </g>
  <g transform="translate(165 180)" fill="#f1a9b8" opacity=".7">
    <ellipse cx="0" cy="0" rx="45" ry="16" transform="rotate(-18)"/>
    <ellipse cx="70" cy="38" rx="58" ry="18" transform="rotate(13)"/>
    <ellipse cx="116" cy="-24" rx="42" ry="14" transform="rotate(-31)"/>
  </g>
</svg>
